<svg width="32" height="32" viewBox="0 0 32 32" fill="none" xmlns="http://www.w3.org/2000/svg">
  <!-- Background circle -->
  <circle cx="16" cy="16" r="15" fill="#667eea" stroke="#4c51bf" stroke-width="2"/>
  
  <!-- Scissors -->
  <g stroke="#ffffff" stroke-width="1.5" fill="none" stroke-linecap="round">
    <!-- Left blade -->
    <path d="M8 12 L12 16 L10 18 L6 14" />
    <!-- Right blade -->
    <path d="M24 12 L20 16 L22 18 L26 14" />
    <!-- Scissors handles -->
    <circle cx="6" cy="14" r="1.5" fill="#ffffff"/>
    <circle cx="26" cy="14" r="1.5" fill="#ffffff"/>
    <!-- Scissors pivot -->
    <circle cx="16" cy="16" r="1" fill="#ffffff"/>
  </g>
  
  <!-- Left comb -->
  <g stroke="#ffffff" stroke-width="1.2" fill="none" stroke-linecap="round">
    <path d="M4 8 L4 12" />
    <path d="M3 9 L5 9" />
    <path d="M3 10 L5 10" />
    <path d="M3 11 L5 11" />
  </g>
  
  <!-- Right comb -->
  <g stroke="#ffffff" stroke-width="1.2" fill="none" stroke-linecap="round">
    <path d="M28 8 L28 12" />
    <path d="M27 9 L29 9" />
    <path d="M27 10 L29 10" />
    <path d="M27 11 L29 11" />
  </g>
</svg>
